{
  "accessors": [
    {
      "bufferView": 2,
      "componentType": 5126,
      "count": 65532,
      "max": [
        355.95318603515625,
        -230.88568115234375,
        239.42626953125
      ],
      "min": [
        -349.3009338378906,
        -449.41522216796875,
        -409.0556945800781
      ],
      "type": "VEC3"
    },
    {
      "bufferView": 2,
      "byteOffset": 786384,
      "componentType": 5126,
      "count": 65532,
      "max": [
        0.7504017353057861,
        -0.5368221998214722,
        0.5060683488845825
      ],
      "min": [
        -0.7267434000968933,
        -0.9999920725822449,
        -0.8260244727134705
      ],
      "type": "VEC3"
    },
    {
      "bufferView": 1,
      "componentType": 5126,
      "count": 65532,
      "max": [
        0.9478728771209717,
        0.8826102018356323
      ],
      "min": [
        0.6723012924194336,
        0.34373676776885986
      ],
      "type": "VEC2"
    },
    {
      "bufferView": 1,
      "byteOffset": 524256,
      "componentType": 5126,
      "count": 65532,
      "max": [
        0.9478728771209717,
        0.8826102018356323
      ],
      "min": [
        0.6723012924194336,
        0.34373676776885986
      ],
      "type": "VEC2"
    },
    {
      "bufferView": 0,
      "componentType": 5125,
      "count": 65532,
      "type": "SCALAR"
    },
    {
      "bufferView": 2,
      "byteOffset": 1572768,
      "componentType": 5126,
      "count": 65532,
      "max": [
        189.1441650390625,
        328.57281494140625,
        358.4158020019531
      ],
      "min": [
        -412.74761962890625,
        -434.0674743652344,
        -483.6110534667969
      ],
      "type": "VEC3"
    },
    {
      "bufferView": 2,
      "byteOffset": 2359152,
      "componentType": 5126,
      "count": 65532,
      "max": [
        0.6010155081748962,
        0.8198594450950623,
        0.7446296811103821
      ],
      "min": [
        -0.8418835401535034,
        -0.984121561050415,
        -0.9999936819076538
      ],
      "type": "VEC3"
    },
    {
      "bufferView": 1,
      "byteOffset": 1048512,
      "componentType": 5126,
      "count": 65532,
      "max": [
        0.984087347984314,
        0.9179927706718445
      ],
      "min": [
        0.363277792930603,
        0.298947811126709
      ],
      "type": "VEC2"
    },
    {
      "bufferView": 1,
      "byteOffset": 1572768,
      "componentType": 5126,
      "count": 65532,
      "max": [
        0.984087347984314,
        0.9179927706718445
      ],
      "min": [
        0.363277792930603,
        0.298947811126709
      ],
      "type": "VEC2"
    },
    {
      "bufferView": 0,
      "byteOffset": 262128,
      "componentType": 5125,
      "count": 65532,
      "type": "SCALAR"
    },
    {
      "bufferView": 2,
      "byteOffset": 3145536,
      "componentType": 5126,
      "count": 65532,
      "max": [
        481.00640869140625,
        329.44549560546875,
        -35.83924102783203
      ],
      "min": [
        99.90251159667969,
        -322.80914306640625,
        -444.1083679199219
      ],
      "type": "VEC3"
    },
    {
      "bufferView": 2,
      "byteOffset": 3931920,
      "componentType": 5126,
      "count": 65532,
      "max": [
        0.9984428882598877,
        0.8648586869239807,
        -0.03392041474580765
      ],
      "min": [
        0.16513563692569733,
        -0.8171518445014954,
        -0.9570896625518799
      ],
      "type": "VEC3"
    },
    {
      "bufferView": 1,
      "byteOffset": 2097024,
      "componentType": 5126,
      "count": 65532,
      "max": [
        0.6900402307510376,
        0.7607486248016357
      ],
      "min": [
        0.4101823568344116,
        0.3770848512649536
      ],
      "type": "VEC2"
    },
    {
      "bufferView": 1,
      "byteOffset": 2621280,
      "componentType": 5126,
      "count": 65532,
      "max": [
        0.6900402307510376,
        0.7607486248016357
      ],
      "min": [
        0.4101823568344116,
        0.3770848512649536
      ],
      "type": "VEC2"
    },
    {
      "bufferView": 0,
      "byteOffset": 524256,
      "componentType": 5125,
      "count": 65532,
      "type": "SCALAR"
    },
    {
      "bufferView": 2,
      "byteOffset": 4718304,
      "componentType": 5126,
      "count": 65532,
      "max": [
        484.7308654785156,
        326.8683776855469,
        356.86102294921875
      ],
      "min": [
        -487.2616882324219,
        -358.1644592285156,
        -57.01329040527344
      ],
      "type": "VEC3"
    },
    {
      "bufferView": 2,
      "byteOffset": 5504688,
      "componentType": 5126,
      "count": 65532,
      "max": [
        0.9995226263999939,
        0.8493718504905701,
        0.8224613666534424
      ],
      "min": [
        -0.9999790787696838,
        -0.8564345836639404,
        -0.20977887511253357
      ],
      "type": "VEC3"
    },
    {
      "bufferView": 1,
      "byteOffset": 3145536,
      "componentType": 5126,
      "count": 65532,
      "max": [
        1.0021486282348633,
        0.6851639747619629
      ],
      "min": [
        7.981061935424805e-05,
        0.10045933723449707
      ],
      "type": "VEC2"
    },
    {
      "bufferView": 1,
      "byteOffset": 3669792,
      "componentType": 5126,
      "count": 65532,
      "max": [
        1.0021486282348633,
        0.6851639747619629
      ],
      "min": [
        7.981061935424805e-05,
        0.10045933723449707
      ],
      "type": "VEC2"
    },
    {
      "bufferView": 0,
      "byteOffset": 786384,
      "componentType": 5125,
      "count": 65532,
      "type": "SCALAR"
    },
    {
      "bufferView": 2,
      "byteOffset": 6291072,
      "componentType": 5126,
      "count": 65532,
      "max": [
        411.4906921386719,
        446.1352233886719,
        478.5477294921875
      ],
      "min": [
        -303.406494140625,
        -355.0115661621094,
        -358.73309326171875
      ],
      "type": "VEC3"
    },
    {
      "bufferView": 2,
      "byteOffset": 7077456,
      "componentType": 5126,
      "count": 65532,
      "max": [
        0.8139587044715881,
        0.9978726506233215,
        0.9995455145835876
      ],
      "min": [
        -0.6760222315788269,
        -0.7963485717773438,
        -0.7105098962783813
      ],
      "type": "VEC3"
    },
    {
      "bufferView": 1,
      "byteOffset": 4194048,
      "componentType": 5126,
      "count": 65532,
      "max": [
        1.1483350992202759,
        0.7010115385055542
      ],
      "min": [
        0.0004926025867462158,
        0.0009325742721557617
      ],
      "type": "VEC2"
    },
    {
      "bufferView": 1,
      "byteOffset": 4718304,
      "componentType": 5126,
      "count": 65532,
      "max": [
        1.1483350992202759,
        0.7010115385055542
      ],
      "min": [
        0.0004926025867462158,
        0.0009325742721557617
      ],
      "type": "VEC2"
    },
    {
      "bufferView": 0,
      "byteOffset": 1048512,
      "componentType": 5125,
      "count": 65532,
      "type": "SCALAR"
    },
    {
      "bufferView": 2,
      "byteOffset": 7863840,
      "componentType": 5126,
      "count": 65532,
      "max": [
        393.714599609375,
        448.1059265136719,
        408.0781555175781
      ],
      "min": [
        -352.22320556640625,
        230.4217529296875,
        -324.1562805175781
      ],
      "type": "VEC3"
    },
    {
      "bufferView": 2,
      "byteOffset": 8650224,
      "componentType": 5126,
      "count": 65532,
      "max": [
        0.8287451267242432,
        0.9999983310699463,
        0.8556432723999023
      ],
      "min": [
        -0.732776939868927,
        0.44490236043930054,
        -0.8181129693984985
      ],
      "type": "VEC3"
    },
    {
      "bufferView": 1,
      "byteOffset": 5242560,
      "componentType": 5126,
      "count": 65532,
      "max": [
        0.4729270935058594,
        0.6900689601898193
      ],
      "min": [
        0.17236411571502686,
        0.117839515209198
      ],
      "type": "VEC2"
    },
    {
      "bufferView": 1,
      "byteOffset": 5766816,
      "componentType": 5126,
      "count": 65532,
      "max": [
        0.4729270935058594,
        0.6900689601898193
      ],
      "min": [
        0.17236411571502686,
        0.117839515209198
      ],
      "type": "VEC2"
    },
    {
      "bufferView": 0,
      "byteOffset": 1310640,
      "componentType": 5125,
      "count": 65532,
      "type": "SCALAR"
    },
    {
      "bufferView": 2,
      "byteOffset": 9436608,
      "componentType": 5126,
      "count": 65532,
      "max": [
        484.7733459472656,
        375.6806335449219,
        399.6876220703125
      ],
      "min": [
        -480.7774353027344,
        -324.3384704589844,
        -339.8115539550781
      ],
      "type": "VEC3"
    },
    {
      "bufferView": 2,
      "byteOffset": 10222992,
      "componentType": 5126,
      "count": 65532,
      "max": [
        0.9999988675117493,
        0.9463778734207153,
        0.8839864134788513
      ],
      "min": [
        -0.9939566850662231,
        -0.7378809452056885,
        -0.7633444666862488
      ],
      "type": "VEC3"
    },
    {
      "bufferView": 1,
      "byteOffset": 6291072,
      "componentType": 5126,
      "count": 65532,
      "max": [
        1.002052664756775,
        0.6955683827400208
      ],
      "min": [
        8.761882781982422e-06,
        0.3016654849052429
      ],
      "type": "VEC2"
    },
    {
      "bufferView": 1,
      "byteOffset": 6815328,
      "componentType": 5126,
      "count": 65532,
      "max": [
        1.002052664756775,
        0.6955683827400208
      ],
      "min": [
        8.761882781982422e-06,
        0.3016654849052429
      ],
      "type": "VEC2"
    },
    {
      "bufferView": 0,
      "byteOffset": 1572768,
      "componentType": 5125,
      "count": 65532,
      "type": "SCALAR"
    },
    {
      "bufferView": 2,
      "byteOffset": 11009376,
      "componentType": 5126,
      "count": 65532,
      "max": [
        77.14466094970703,
        338.0199890136719,
        482.876953125
      ],
      "min": [
        -287.3003845214844,
        -325.0528259277344,
        -479.210693359375
      ],
      "type": "VEC3"
    },
    {
      "bufferView": 2,
      "byteOffset": 11795760,
      "componentType": 5126,
      "count": 65532,
      "max": [
        0.23301014304161072,
        0.8408429622650146,
        0.9999805092811584
      ],
      "min": [
        -0.606423556804657,
        -0.7647744417190552,
        -0.9960480332374573
      ],
      "type": "VEC3"
    },
    {
      "bufferView": 1,
      "byteOffset": 7339584,
      "componentType": 5126,
      "count": 65532,
      "max": [
        1.0857577323913574,
        0.9990108609199524
      ],
      "min": [
        1.9997358322143555e-05,
        0.08187264204025269
      ],
      "type": "VEC2"
    },
    {
      "bufferView": 1,
      "byteOffset": 7863840,
      "componentType": 5126,
      "count": 65532,
      "max": [
        1.0857577323913574,
        0.9990108609199524
      ],
      "min": [
        1.9997358322143555e-05,
        0.08187264204025269
      ],
      "type": "VEC2"
    },
    {
      "bufferView": 0,
      "byteOffset": 1834896,
      "componentType": 5125,
      "count": 65532,
      "type": "SCALAR"
    },
    {
      "bufferView": 2,
      "byteOffset": 12582144,
      "componentType": 5126,
      "count": 65532,
      "max": [
        -117.73249053955078,
        355.5050048828125,
        -5.422239780426025
      ],
      "min": [
        -483.71075439453125,
        -282.4510498046875,
        -437.1968994140625
      ],
      "type": "VEC3"
    },
    {
      "bufferView": 2,
      "byteOffset": 13368528,
      "componentType": 5126,
      "count": 65532,
      "max": [
        -0.19832146167755127,
        0.8951006531715393,
        0.09008699655532837
      ],
      "min": [
        -0.992641270160675,
        -0.6940723657608032,
        -0.9167540669441223
      ],
      "type": "VEC3"
    },
    {
      "bufferView": 1,
      "byteOffset": 8388096,
      "componentType": 5126,
      "count": 65532,
      "max": [
        1.063189148902893,
        0.9927197098731995
      ],
      "min": [
        3.692507743835449e-05,
        0.550700843334198
      ],
      "type": "VEC2"
    },
    {
      "bufferView": 1,
      "byteOffset": 8912352,
      "componentType": 5126,
      "count": 65532,
      "max": [
        1.063189148902893,
        0.9927197098731995
      ],
      "min": [
        3.692507743835449e-05,
        0.550700843334198
      ],
      "type": "VEC2"
    },
    {
      "bufferView": 0,
      "byteOffset": 2097024,
      "componentType": 5125,
      "count": 65532,
      "type": "SCALAR"
    },
    {
      "bufferView": 2,
      "byteOffset": 14154912,
      "componentType": 5126,
      "count": 36,
      "max": [
        -414.6341247558594,
        226.70480346679688,
        -20.21548080444336
      ],
      "min": [
        -431.61798095703125,
        197.87225341796875,
        -29.198589324951172
      ],
      "type": "VEC3"
    },
    {
      "bufferView": 2,
      "byteOffset": 14155344,
      "componentType": 5126,
      "count": 36,
      "max": [
        -0.8405119180679321,
        0.5411501526832581,
        0.05661391466856003
      ],
      "min": [
        -0.8975383043289185,
        0.43693599104881287,
        -0.05926193296909332
      ],
      "type": "VEC3"
    },
    {
      "bufferView": 1,
      "byteOffset": 9436608,
      "componentType": 5126,
      "count": 36,
      "max": [
        0.15733176469802856,
        0.6099995970726013
      ],
      "min": [
        0.14753007888793945,
        0.5961319208145142
      ],
      "type": "VEC2"
    },
    {
      "bufferView": 1,
      "byteOffset": 9436896,
      "componentType": 5126,
      "count": 36,
      "max": [
        0.15733176469802856,
        0.6099995970726013
      ],
      "min": [
        0.14753007888793945,
        0.5961319208145142
      ],
      "type": "VEC2"
    },
    {
      "bufferView": 0,
      "byteOffset": 2359152,
      "componentType": 5125,
      "count": 36,
      "type": "SCALAR"
    }
  ],
  "asset": {
    "extras": {
      "author": "Ignazio Pillitteri (https://sketchfab.com/gnaz)",
      "license": "CC-BY-ND-4.0 (http://creativecommons.org/licenses/by-nd/4.0/)",
      "source": "https://sketchfab.com/3d-models/asteroid-ceres-f57c49e7eb90439c97064d2ddea09d25",
      "title": "Asteroid: Ceres"
    },
    "generator": "Sketchfab-12.66.0",
    "version": "2.0"
  },
  "bufferViews": [
    {
      "buffer": 0,
      "byteLength": 2359296,
      "name": "floatBufferViews",
      "target": 34963
    },
    {
      "buffer": 0,
      "byteLength": 9437184,
      "byteOffset": 2359296,
      "byteStride": 8,
      "name": "floatBufferViews",
      "target": 34962
    },
    {
      "buffer": 0,
      "byteLength": 14155776,
      "byteOffset": 11796480,
      "byteStride": 12,
      "name": "floatBufferViews",
      "target": 34962
    }
  ],
  "buffers": [
    {
      "byteLength": 25952256,
      "uri": "scene.bin"
    }
  ],
  "images": [
    {
      "uri": "textures/Default_OBJ_baseColor.png"
    },
    {
      "uri": "textures/Default_OBJ_metallicRoughness.png"
    }
  ],
  "materials": [
    {
      "doubleSided": true,
      "name": "Default_OBJ",
      "pbrMetallicRoughness": {
        "baseColorFactor": [
          0.5011651483254776,
          0.5011651483254776,
          0.5011651483254776,
          1.0
        ],
        "baseColorTexture": {
          "index": 0
        },
        "metallicFactor": 0.0,
        "metallicRoughnessTexture": {
          "index": 1
        },
        "roughnessFactor": 0.5
      }
    }
  ],
  "meshes": [
    {
      "name": "Object_0",
      "primitives": [
        {
          "attributes": {
            "NORMAL": 1,
            "POSITION": 0,
            "TEXCOORD_0": 2,
            "TEXCOORD_1": 3
          },
          "indices": 4,
          "material": 0,
          "mode": 4
        }
      ]
    },
    {
      "name": "Object_1",
      "primitives": [
        {
          "attributes": {
            "NORMAL": 6,
            "POSITION": 5,
            "TEXCOORD_0": 7,
            "TEXCOORD_1": 8
          },
          "indices": 9,
          "material": 0,
          "mode": 4
        }
      ]
    },
    {
      "name": "Object_2",
      "primitives": [
        {
          "attributes": {
            "NORMAL": 11,
            "POSITION": 10,
            "TEXCOORD_0": 12,
            "TEXCOORD_1": 13
          },
          "indices": 14,
          "material": 0,
          "mode": 4
        }
      ]
    },
    {
      "name": "Object_3",
      "primitives": [
        {
          "attributes": {
            "NORMAL": 16,
            "POSITION": 15,
            "TEXCOORD_0": 17,
            "TEXCOORD_1": 18
          },
          "indices": 19,
          "material": 0,
          "mode": 4
        }
      ]
    },
    {
      "name": "Object_4",
      "primitives": [
        {
          "attributes": {
            "NORMAL": 21,
            "POSITION": 20,
            "TEXCOORD_0": 22,
            "TEXCOORD_1": 23
          },
          "indices": 24,
          "material": 0,
          "mode": 4
        }
      ]
    },
    {
      "name": "Object_5",
      "primitives": [
        {
          "attributes": {
            "NORMAL": 26,
            "POSITION": 25,
            "TEXCOORD_0": 27,
            "TEXCOORD_1": 28
          },
          "indices": 29,
          "material": 0,
          "mode": 4
        }
      ]
    },
    {
      "name": "Object_6",
      "primitives": [
        {
          "attributes": {
            "NORMAL": 31,
            "POSITION": 30,
            "TEXCOORD_0": 32,
            "TEXCOORD_1": 33
          },
          "indices": 34,
          "material": 0,
          "mode": 4
        }
      ]
    },
    {
      "name": "Object_7",
      "primitives": [
        {
          "attributes": {
            "NORMAL": 36,
            "POSITION": 35,
            "TEXCOORD_0": 37,
            "TEXCOORD_1": 38
          },
          "indices": 39,
          "material": 0,
          "mode": 4
        }
      ]
    },
    {
      "name": "Object_8",
      "primitives": [
        {
          "attributes": {
            "NORMAL": 41,
            "POSITION": 40,
            "TEXCOORD_0": 42,
            "TEXCOORD_1": 43
          },
          "indices": 44,
          "material": 0,
          "mode": 4
        }
      ]
    },
    {
      "name": "Object_9",
      "primitives": [
        {
          "attributes": {
            "NORMAL": 46,
            "POSITION": 45,
            "TEXCOORD_0": 47,
            "TEXCOORD_1": 48
          },
          "indices": 49,
          "material": 0,
          "mode": 4
        }
      ]
    }
  ],
  "nodes": [
    {
      "children": [
        1
      ],
      "matrix": [
        -0.005838542710989714,
        2.9503413896616768e-18,
        -1.6539244800620436e-18,
        0.0,
        -1.6539244800620442e-18,
        1.005716025262228e-18,
        0.005838542710989714,
        0.0,
        2.9503413896616764e-18,
        0.005838542710989714,
        -1.005716025262228e-18,
        0.0,
        -2.4876708984375,
        6.792594373257466e-16,
        -1.309112548828125,
        1.0
      ],
      "name": "Sketchfab_model"
    },
    {
      "children": [
        2
      ],
      "name": "root"
    },
    {
      "children": [
        3
      ],
      "matrix": [
        1.0,
        0.0,
        0.0,
        0.0,
        0.0,
        2.220446049250313e-16,
        1.0,
        0.0,
        0.0,
        -1.0,
        2.220446049250313e-16,
        0.0,
        0.0,
        0.0,
        0.0,
        1.0
      ],
      "name": "GLTF_SceneRootNode"
    },
    {
      "children": [
        4,
        5,
        6,
        7,
        8,
        9,
        10,
        11,
        12,
        13
      ],
      "matrix": [
        1.0,
        0.0,
        0.0,
        0.0,
        0.0,
        0.0,
        1.0,
        0.0,
        0.0,
        -1.0,
        0.0,
        0.0,
        0.0,
        0.0,
        0.0,
        1.0
      ],
      "name": "Ceres OpNav5 200k poly_2"
    },
    {
      "mesh": 0,
      "name": "Object_4"
    },
    {
      "mesh": 1,
      "name": "Object_5"
    },
    {
      "mesh": 2,
      "name": "Object_6"
    },
    {
      "mesh": 3,
      "name": "Object_7"
    },
    {
      "mesh": 4,
      "name": "Object_8"
    },
    {
      "mesh": 5,
      "name": "Object_9"
    },
    {
      "mesh": 6,
      "name": "Object_10"
    },
    {
      "mesh": 7,
      "name": "Object_11"
    },
    {
      "mesh": 8,
      "name": "Object_12"
    },
    {
      "mesh": 9,
      "name": "Object_13"
    }
  ],
  "samplers": [
    {
      "magFilter": 9729,
      "minFilter": 9987,
      "wrapS": 10497,
      "wrapT": 10497
    },
    {
      "magFilter": 9729,
      "minFilter": 9729,
      "wrapS": 10497,
      "wrapT": 10497
    }
  ],
  "scene": 0,
  "scenes": [
    {
      "name": "Sketchfab_Scene",
      "nodes": [
        0
      ]
    }
  ],
  "textures": [
    {
      "sampler": 0,
      "source": 0
    },
    {
      "sampler": 1,
      "source": 1
    }
  ]
}
