<?xml version="1.0" standalone="no"?>
<!DOCTYPE svg PUBLIC "-//W3C//DTD SVG 20010904//EN"
 "http://www.w3.org/TR/2001/REC-SVG-20010904/DTD/svg10.dtd">
<svg version="1.0" xmlns="http://www.w3.org/2000/svg"
 width="339.000000pt" height="339.000000pt" viewBox="0 0 339.000000 339.000000"
 preserveAspectRatio="xMidYMid meet">
<metadata>
Created by potrace 1.14, written by Peter Selinger 2001-2017
</metadata>
<g transform="translate(0.000000,339.000000) scale(0.100000,-0.100000)"
fill="#000000" stroke="none">
<path d="M1540 3019 c-52 -8 -134 -25 -228 -49 -37 -9 -152 -62 -242 -111 -62
-35 -180 -116 -235 -162 -152 -128 -272 -288 -356 -477 -101 -228 -123 -326
-123 -550 0 -219 37 -374 139 -587 93 -196 188 -313 370 -457 150 -119 267
-179 477 -243 l123 -37 220 -2 c230 -1 289 5 415 47 138 46 289 121 350 174
14 12 61 47 105 78 44 30 94 69 111 85 31 29 214 285 214 298 0 4 6 15 13 23
17 20 54 108 60 142 3 13 12 42 22 64 29 70 44 119 50 170 4 28 8 57 11 66 10
37 16 120 16 229 0 125 -3 154 -28 245 -9 33 -17 65 -18 70 -7 30 -40 132 -46
145 -114 237 -180 337 -299 457 -73 74 -187 160 -266 200 -99 51 -232 112
-281 129 -46 16 -62 19 -119 29 -16 3 -37 8 -45 10 -44 12 -88 16 -215 19 -77
2 -165 -1 -195 -5z"/>
</g>
</svg>
